<?xml version="1.0" encoding="utf-8"?>
<!-- Generator: Adobe Illustrator 19.2.0, SVG Export Plug-In . SVG Version: 6.00 Build 0)  -->
<svg version="1.1" id="Layer_1" xmlns="http://www.w3.org/2000/svg" xmlns:xlink="http://www.w3.org/1999/xlink" x="0px" y="0px"
	 width="76px" height="62px" viewBox="0 0 76 62" style="enable-background:new 0 0 76 62;" xml:space="preserve">
<style type="text/css">
	.st0{fill-rule:evenodd;clip-rule:evenodd;}
</style>
<g>
	<g>
		<path class="st0" d="M47.84,60.82h2.01V43.36h-2.01V60.82z M33.32,44.14c-0.29-0.28-0.63-0.51-1.02-0.67
			c-0.39-0.16-0.81-0.24-1.26-0.24l-1.34,0c-0.45,0-0.86,0.08-1.25,0.24c-0.39,0.16-0.72,0.38-1.01,0.67
			c-0.29,0.28-0.52,0.62-0.69,1c-0.17,0.39-0.26,0.8-0.26,1.23V57.9c0,0.44,0.09,0.84,0.26,1.22c0.17,0.38,0.4,0.71,0.69,0.99
			c0.29,0.28,0.63,0.51,1.01,0.68c0.39,0.17,0.8,0.25,1.25,0.25l1.34,0c0.45,0,0.87-0.08,1.26-0.25c0.39-0.17,0.74-0.39,1.02-0.68
			c0.29-0.28,0.52-0.61,0.68-0.99c0.16-0.38,0.24-0.79,0.24-1.22v-3.45H32.2v3.45c0,0.17-0.01,0.33-0.02,0.48
			c-0.01,0.15-0.06,0.27-0.12,0.37c-0.07,0.1-0.18,0.18-0.33,0.24c-0.16,0.06-0.38,0.09-0.68,0.09H29.7c-0.36,0-0.65-0.11-0.87-0.33
			c-0.22-0.22-0.33-0.5-0.33-0.85V46.37c0-0.35,0.11-0.63,0.33-0.85c0.22-0.22,0.51-0.33,0.87-0.33h1.34c0.36,0,0.65,0.11,0.87,0.33
			c0.22,0.22,0.33,0.5,0.33,0.85v2.75h2.01v-2.75c0-0.44-0.08-0.85-0.24-1.23C33.84,44.75,33.61,44.42,33.32,44.14z M42.6,50.22
			h-3.68v-6.85h-2.01v17.46h2.01v-8.67h3.68v8.67h2.01V43.36H42.6V50.22z M23.57,17.06c-0.36-2.22-0.62-4.51-0.25-6.75
			c0.21-1.31,0.74-2.63,1.78-3.53C19.9,7.12,14.71,7.63,9.62,8.73v0c-1.65,0.37-3.28,0.81-4.85,1.44c-0.86,0.35-1.7,0.77-2.42,1.34
			c-0.47,0.38-0.9,0.84-1.09,1.42c-0.2,0.65-0.08,1.37,0.28,1.95c0.63,1.05,1.64,1.81,2.63,2.52c1.34,1.13,2.55,2.39,3.69,3.72
			c2.37,2.8,4.36,5.98,5.38,9.5c0.49,1.78,0.77,3.65,0.59,5.5c0.28-0.14,0.56-0.27,0.85-0.4c4.23-1.86,8.68-3.24,13.24-4.04
			C26.08,26.94,24.45,22.08,23.57,17.06z M64.43,12.01c-3.49-1.29-6.81-3.18-9.42-5.81c-0.46-0.46-0.87-0.95-1.31-1.43l0,0
			c0.61,1.93,1.05,3.92,1.39,5.91c0.7,4.27,0.88,8.66,0.07,12.93c-0.6,3.16-1.81,6.25-3.78,8.83c4.01,1,7.91,2.41,11.63,4.2
			c0.35-4.1,1.03-8.2,2.32-12.12c0.69-2.04,1.55-4.03,2.78-5.82c0.91-1.31,2.04-2.5,3.44-3.31c1.09-0.62,2.34-1.03,3.61-1.04v-0.02
			C71.51,14.02,67.87,13.29,64.43,12.01z M35.49,4.29c-3.01-0.08-6.07-0.33-8.9-1.4c-0.59-0.23-1.17-0.5-1.72-0.82l0.08-0.03h-0.16
			c2.04,2.73,3.51,5.82,4.64,9c2.26,6.43,2.91,13.36,2.22,20.11c4.95-0.55,9.98-0.43,14.91,0.32c-0.37-3.92-0.55-7.86-0.47-11.8
			c0.07-2.45,0.23-4.9,0.62-7.33c0.37-2.23,0.89-4.47,1.95-6.48c0.61-1.16,1.45-2.26,2.62-2.93c0.38-0.23,0.81-0.36,1.22-0.53
			C46.9,3.56,41.21,4.32,35.49,4.29z"/>
	</g>
</g>
</svg>
