<?xml version="1.0" encoding="utf-8"?>
<!-- Generator: Adobe Illustrator 19.2.0, SVG Export Plug-In . SVG Version: 6.00 Build 0)  -->
<svg version="1.1" id="Layer_1" xmlns="http://www.w3.org/2000/svg" xmlns:xlink="http://www.w3.org/1999/xlink" x="0px" y="0px"
	 width="15px" height="15px" viewBox="0 0 15 15" style="enable-background:new 0 0 15 15;" xml:space="preserve">
<style type="text/css">
	.st0{fill:#00AFF0;}
</style>
<path class="st0" d="M13.91,9.3c0.1-0.46,0.15-0.93,0.15-1.41c0-3.64-2.99-6.58-6.68-6.58C7,1.31,6.62,1.34,6.25,1.4
	c-0.6-0.37-1.3-0.59-2.06-0.59c-2.14,0-3.87,1.71-3.87,3.82c0,0.7,0.19,1.36,0.53,1.93C0.76,7,0.71,7.44,0.71,7.89
	c0,3.64,2.99,6.47,6.68,6.47c0.42,0,0.83-0.04,1.22-0.11c0.55,0.29,1.17,0.56,1.83,0.56c2.14,0,3.87-1.71,3.87-3.82
	C14.31,10.39,14.17,9.82,13.91,9.3z M10.43,10.58c-0.26,0.37-0.63,0.65-1.13,0.86c-0.5,0.21-1.08,0.31-1.76,0.31
	c-0.82,0-1.49-0.14-2.02-0.43c-0.38-0.2-0.68-0.48-0.92-0.82c-0.23-0.34-0.35-0.67-0.35-0.99c0-0.19,0.07-0.35,0.21-0.48
	C4.6,8.9,4.78,8.83,5,8.83c0.18,0,0.33,0.05,0.45,0.16c0.12,0.1,0.23,0.26,0.31,0.46C5.86,9.69,5.98,9.9,6.1,10.06
	c0.12,0.16,0.29,0.3,0.52,0.4c0.22,0.1,0.51,0.16,0.87,0.16c0.5,0,0.9-0.11,1.21-0.32c0.31-0.21,0.47-0.48,0.47-0.8
	c0-0.25-0.08-0.46-0.25-0.61C8.75,8.73,8.53,8.61,8.27,8.53C8,8.45,7.65,8.36,7.2,8.26C6.61,8.14,6.11,7.99,5.71,7.82
	c-0.4-0.17-0.72-0.41-0.95-0.7c-0.24-0.3-0.35-0.66-0.35-1.1c0-0.42,0.12-0.79,0.37-1.12c0.25-0.33,0.61-0.58,1.08-0.75
	c0.47-0.17,1.02-0.26,1.66-0.26c0.51,0,0.95,0.06,1.32,0.17C9.2,4.18,9.51,4.33,9.75,4.52c0.24,0.19,0.42,0.39,0.54,0.6
	c0.11,0.21,0.17,0.42,0.17,0.62c0,0.18-0.07,0.35-0.21,0.5C10.1,6.39,9.93,6.46,9.72,6.46c-0.19,0-0.34-0.04-0.44-0.13
	c-0.1-0.09-0.21-0.23-0.32-0.43C8.81,5.61,8.63,5.38,8.42,5.22C8.2,5.06,7.87,4.98,7.4,4.98c-0.43,0-0.78,0.09-1.05,0.26
	c-0.27,0.17-0.4,0.38-0.4,0.63c0,0.15,0.05,0.28,0.14,0.39c0.09,0.11,0.21,0.21,0.37,0.28c0.16,0.08,0.32,0.14,0.48,0.19
	c0.16,0.05,0.43,0.11,0.8,0.2c0.47,0.1,0.89,0.21,1.27,0.33c0.38,0.12,0.7,0.27,0.96,0.44c0.26,0.17,0.47,0.39,0.62,0.66
	c0.15,0.26,0.22,0.59,0.22,0.97C10.82,9.8,10.69,10.21,10.43,10.58z"/>
</svg>
