<svg xmlns="http://www.w3.org/2000/svg" viewBox="0.2 68 613.4 652.7"><path fill="#211915" d="M613.6 701.3l-63.3-66.1c19.3-24.4 30.9-55.6 30.9-89.6 0-78-61.2-141.5-136.4-141.5-23.1 0-44.8 6-63.9 16.5-9.9-8.7-15.7-15-15.9-15-3.5-3.7-13.4-16.9-24-27.7 6.8-4.8 13.1-10.4 18.9-16.8 49.9-55.5 41.7-150.4 40.7-159.2-3.3-68.4-35.9-100.7-62.9-116.1-20.3-11.3-43.6-17.5-69.8-17.9h-2.3c-14.6 0-42.7 2.1-69.8 17.5-27.1 15.4-60.8 47.7-63.7 115.9-1 9.2-9.2 104.2 40.7 159.2 5.7 6.5 11.9 12.2 18.6 17-5.5 5.4-12.5 13.5-21.5 25.2-1 1.4-1.9 2.9-3.1 4.1-8.4 8.8-53.2 53.8-106.8 66.8-.4 0-1 0-1.4.6C2.5 493.5 1.2 552.6.2 577.7v3.7c0 6.6-.4 40.5 6.8 58.1 0 .2.2.4.2.6 2.3 4.7 7 7.8 12.3 7.8h331.3c24.5 24.3 57.7 39.3 94.2 39.3 32.6 0 62.5-11.9 86-31.7l62.5 65.3 20.1-19.5zM166.8 205.2v-1c4.3-92 70.7-101.7 98.8-101.7h1.4c34.9.6 94.5 14.8 98.8 101.1v1c0 1 9.2 87.9-32 133.5-16.6 18.5-38.4 27.3-66.8 27.7h-1.4c-28.6-.6-50.5-9.2-66.4-27.7-41.2-45.3-32.4-132.6-32.4-132.9zM49.3 620.8v.4c-7 0-13.1-5.5-13.6-12.7-.8-9-1.2-19.1-1.2-26.9v-3.1c1-29 4.3-60.8 33.9-71.1.4-.2.8-.2 1.2-.4 64.1-16.6 125.3-81.4 127.6-83 3.5-4.1 16.4-19 22.5-31.6 13.5 4.8 28.4 7.4 44.5 7.8h4.3c17.3-.4 33.1-3.4 47.4-8.8 9.3 17.7 25 39 29.4 41.9.5.3 3.3 3.2 8 7.6-27.4 25.9-44.7 63.2-44.7 104.7 0 27.6 7.7 53.4 20.9 75.2H49.3zm395.6 36.3c-58.7 0-106.4-50-106.4-111.5s47.7-111.5 106.4-111.5 106.4 50 106.4 111.5-47.7 111.5-106.4 111.5z"/></svg>