<svg id="Layer_1" xmlns="http://www.w3.org/2000/svg" width="76" height="62" viewBox="0 0 76 62"><style>.st0{fill-rule:evenodd;clip-rule:evenodd;}</style><path class="st0" d="M47.84 60.82h2.01V43.36h-2.01v17.46zM33.32 44.14c-.29-.28-.63-.51-1.02-.67-.39-.16-.81-.24-1.26-.24H29.7c-.45 0-.86.08-1.25.24-.39.16-.72.38-1.01.67-.29.28-.52.62-.69 1-.17.39-.26.8-.26 1.23V57.9c0 .44.09.84.26 1.22s.4.71.69.99c.29.28.63.51 1.01.68.39.17.8.25 1.25.25h1.34c.45 0 .87-.08 1.26-.25.39-.17.74-.39 1.02-.68.29-.28.52-.61.68-.99.16-.38.24-.79.24-1.22v-3.45H32.2v3.45c0 .17-.01.33-.02.48-.01.15-.06.27-.12.37-.07.1-.18.18-.33.24-.16.06-.38.09-.68.09H29.7c-.36 0-.65-.11-.87-.33-.22-.22-.33-.5-.33-.85V46.37c0-.35.11-.63.33-.85.22-.22.51-.33.87-.33h1.34c.36 0 .65.11.87.33.22.22.33.5.33.85v2.75h2.01v-2.75c0-.44-.08-.85-.24-1.23-.17-.39-.4-.72-.69-1zm9.28 6.08h-3.68v-6.85h-2.01v17.46h2.01v-8.67h3.68v8.67h2.01V43.36H42.6v6.86zM23.57 17.06c-.36-2.22-.62-4.51-.25-6.75.21-1.31.74-2.63 1.78-3.53-5.2.34-10.39.85-15.48 1.95-1.65.37-3.28.81-4.85 1.44-.86.35-1.7.77-2.42 1.34-.47.38-.9.84-1.09 1.42-.2.65-.08 1.37.28 1.95.63 1.05 1.64 1.81 2.63 2.52 1.34 1.13 2.55 2.39 3.69 3.72 2.37 2.8 4.36 5.98 5.38 9.5.49 1.78.77 3.65.59 5.5.28-.14.56-.27.85-.4 4.23-1.86 8.68-3.24 13.24-4.04-1.84-4.74-3.47-9.6-4.35-14.62zm40.86-5.05c-3.49-1.29-6.81-3.18-9.42-5.81-.46-.46-.87-.95-1.31-1.43.61 1.93 1.05 3.92 1.39 5.91.7 4.27.88 8.66.07 12.93-.6 3.16-1.81 6.25-3.78 8.83 4.01 1 7.91 2.41 11.63 4.2.35-4.1 1.03-8.2 2.32-12.12.69-2.04 1.55-4.03 2.78-5.82.91-1.31 2.04-2.5 3.44-3.31 1.09-.62 2.34-1.03 3.61-1.04v-.02c-3.65-.31-7.29-1.04-10.73-2.32zM35.49 4.29c-3.01-.08-6.07-.33-8.9-1.4-.59-.23-1.17-.5-1.72-.82l.08-.03h-.16c2.04 2.73 3.51 5.82 4.64 9 2.26 6.43 2.91 13.36 2.22 20.11 4.95-.55 9.98-.43 14.91.32-.37-3.92-.55-7.86-.47-11.8.07-2.45.23-4.9.62-7.33.37-2.23.89-4.47 1.95-6.48.61-1.16 1.45-2.26 2.62-2.93.38-.23.81-.36 1.22-.53-5.6 1.16-11.29 1.92-17.01 1.89z"/></svg>