<svg id="Layer_1" xmlns="http://www.w3.org/2000/svg" width="15" height="15" viewBox="0 0 15 15"><style>.st0{fill:#00AFF0;}</style><path class="st0" d="M13.91 9.3c.1-.46.15-.93.15-1.41 0-3.64-2.99-6.58-6.68-6.58-.38 0-.76.03-1.13.09-.6-.37-1.3-.59-2.06-.59C2.05.81.32 2.52.32 4.63c0 .7.19 1.36.53 1.93-.09.44-.14.88-.14 1.33 0 3.64 2.99 6.47 6.68 6.47.42 0 .83-.04 1.22-.11.55.29 1.17.56 1.83.56 2.14 0 3.87-1.71 3.87-3.82 0-.6-.14-1.17-.4-1.69zm-3.48 1.28c-.26.37-.63.65-1.13.86-.5.21-1.08.31-1.76.31-.82 0-1.49-.14-2.02-.43-.38-.2-.68-.48-.92-.82-.23-.34-.35-.67-.35-.99 0-.19.07-.35.21-.48.14-.13.32-.2.54-.2.18 0 .33.05.45.16.12.1.23.26.31.46.1.24.22.45.34.61.12.16.29.3.52.4.22.1.51.16.87.16.5 0 .9-.11 1.21-.32.31-.21.47-.48.47-.8 0-.25-.08-.46-.25-.61-.17-.16-.39-.28-.65-.36-.27-.08-.62-.17-1.07-.27-.59-.12-1.09-.27-1.49-.44-.4-.17-.72-.41-.95-.7-.24-.3-.35-.66-.35-1.1 0-.42.12-.79.37-1.12.25-.33.61-.58 1.08-.75.47-.17 1.02-.26 1.66-.26.51 0 .95.06 1.32.17.36.12.67.27.91.46s.42.39.54.6c.11.21.17.42.17.62 0 .18-.07.35-.21.5-.15.15-.32.22-.53.22-.19 0-.34-.04-.44-.13-.1-.09-.21-.23-.32-.43-.15-.29-.33-.52-.54-.68-.22-.16-.55-.24-1.02-.24-.43 0-.78.09-1.05.26s-.4.38-.4.63c0 .15.05.28.14.39.09.11.21.21.37.28.16.08.32.14.48.19.16.05.43.11.8.2.47.1.89.21 1.27.33.38.12.7.27.96.44.26.17.47.39.62.66.15.26.22.59.22.97.01.47-.12.88-.38 1.25z"/></svg>